<svg width="42.000000" height="42.000000" viewBox="0 0 42 42" fill="none" xmlns="http://www.w3.org/2000/svg" xmlns:xlink="http://www.w3.org/1999/xlink">
	<desc>
			Created with Pixso.
	</desc>
	<defs>
		<filter id="filter_1895_479_dd" x="0.000000" y="0.000000" width="42.000000" height="42.000000" filterUnits="userSpaceOnUse" color-interpolation-filters="sRGB">
			<feFlood flood-opacity="0" result="BackgroundImageFix"/>
			<feColorMatrix in="SourceAlpha" type="matrix" values="0 0 0 0 0 0 0 0 0 0 0 0 0 0 0 0 0 0 127 0" result="hardAlpha"/>
			<feOffset dx="0" dy="4"/>
			<feGaussianBlur stdDeviation="1.33333"/>
			<feComposite in2="hardAlpha" operator="out" k2="-1" k3="1"/>
			<feColorMatrix type="matrix" values="0 0 0 0 0 0 0 0 0 0 0 0 0 0 0 0 0 0 0.25 0"/>
			<feBlend mode="normal" in2="BackgroundImageFix" result="effect_dropShadow_1"/>
			<feColorMatrix in="SourceAlpha" type="matrix" values="0 0 0 0 0 0 0 0 0 0 0 0 0 0 0 0 0 0 127 0" result="hardAlpha"/>
			<feOffset dx="0" dy="4"/>
			<feGaussianBlur stdDeviation="1.33333"/>
			<feComposite in2="hardAlpha" operator="out" k2="-1" k3="1"/>
			<feColorMatrix type="matrix" values="0 0 0 0 0 0 0 0 0 0 0 0 0 0 0 0 0 0 0.25 0"/>
			<feBlend mode="normal" in2="effect_dropShadow_1" result="effect_dropShadow_2"/>
			<feColorMatrix in="SourceAlpha" type="matrix" values="0 0 0 0 0 0 0 0 0 0 0 0 0 0 0 0 0 0 127 0" result="hardAlpha"/>
			<feOffset dx="0" dy="4"/>
			<feGaussianBlur stdDeviation="1.33333"/>
			<feComposite in2="hardAlpha" operator="out" k2="-1" k3="1"/>
			<feColorMatrix type="matrix" values="0 0 0 0 0 0 0 0 0 0 0 0 0 0 0 0 0 0 0.25 0"/>
			<feBlend mode="normal" in2="effect_dropShadow_2" result="effect_dropShadow_3"/>
			<feColorMatrix in="SourceAlpha" type="matrix" values="0 0 0 0 0 0 0 0 0 0 0 0 0 0 0 0 0 0 127 0" result="hardAlpha"/>
			<feOffset dx="0" dy="4"/>
			<feGaussianBlur stdDeviation="1.33333"/>
			<feComposite in2="hardAlpha" operator="out" k2="-1" k3="1"/>
			<feColorMatrix type="matrix" values="0 0 0 0 0 0 0 0 0 0 0 0 0 0 0 0 0 0 0.25 0"/>
			<feBlend mode="normal" in2="effect_dropShadow_3" result="effect_dropShadow_4"/>
			<feBlend mode="normal" in="SourceGraphic" in2="effect_dropShadow_4" result="shape"/>
		</filter>
		<clipPath id="clip1895_479">
			<rect id="radix-icons:cross-2" width="34.000000" height="34.000000" transform="translate(4.000000 0.000000)" fill="white" fill-opacity="0"/>
		</clipPath>
	</defs>
	<g filter="url(#filter_1895_479_dd)">
		<rect id="radix-icons:cross-2" width="34.000000" height="34.000000" transform="translate(4.000000 0.000000)" fill="#FFFFFF" fill-opacity="0"/>
		<g clip-path="url(#clip1895_479)">
			<path id="Vector" d="M30.7 9.13C30.82 9.01 30.92 8.87 30.98 8.71C31.05 8.55 31.08 8.38 31.08 8.21C31.08 8.04 31.05 7.87 30.98 7.71C30.92 7.56 30.82 7.41 30.7 7.29C30.58 7.17 30.44 7.07 30.28 7.01C30.12 6.94 29.95 6.91 29.78 6.91C29.61 6.91 29.44 6.94 29.28 7.01C29.12 7.07 28.98 7.17 28.86 7.29L21 15.15L13.13 7.29C12.89 7.04 12.56 6.91 12.21 6.91C11.87 6.91 11.53 7.04 11.29 7.29C11.04 7.53 10.91 7.87 10.91 8.21C10.91 8.56 11.04 8.89 11.29 9.13L19.15 17L11.29 24.86C11.17 24.98 11.07 25.12 11.01 25.28C10.94 25.44 10.91 25.61 10.91 25.78C10.91 25.95 10.94 26.12 11.01 26.28C11.07 26.44 11.17 26.58 11.29 26.7C11.53 26.95 11.87 27.08 12.21 27.08C12.38 27.08 12.55 27.05 12.71 26.98C12.87 26.92 13.01 26.82 13.13 26.7L21 18.84L28.86 26.7C29.1 26.95 29.43 27.08 29.78 27.08C30.13 27.08 30.46 26.94 30.7 26.7C30.95 26.46 31.08 26.12 31.08 25.78C31.08 25.43 30.95 25.1 30.7 24.86L22.84 17L30.7 9.13Z" fill="#000000" fill-opacity="1.000000" fill-rule="evenodd"/>
		</g>
	</g>
</svg>
